<?xml version="1.0" standalone="no"?>
<!DOCTYPE svg PUBLIC "-//W3C//DTD SVG 20010904//EN"
 "http://www.w3.org/TR/2001/REC-SVG-20010904/DTD/svg10.dtd">
<svg version="1.0" xmlns="http://www.w3.org/2000/svg"
 width="122.000000pt" height="122.000000pt" viewBox="0 0 122.000000 122.000000"
 preserveAspectRatio="xMidYMid meet">
<metadata>
Created by potrace 1.14, written by Peter Selinger 2001-2017
</metadata>
<g transform="translate(0.000000,122.000000) scale(0.100000,-0.100000)"
fill="#000000" stroke="none">
<path d="M460 968 c-30 -5 -62 -12 -70 -15 -8 -4 -17 -7 -20 -7 -3 -1 -27 -10
-55 -20 -160 -61 -265 -183 -265 -306 0 -122 113 -249 274 -309 101 -37 181
-49 305 -46 202 5 347 61 460 177 67 69 87 204 42 290 -20 40 -109 138 -124
138 -3 0 -23 10 -44 23 -42 24 -82 40 -158 63 -60 18 -267 25 -345 12z"/>
</g>
</svg>
