<?xml version="1.0" standalone="no"?>
<!DOCTYPE svg PUBLIC "-//W3C//DTD SVG 20010904//EN"
 "http://www.w3.org/TR/2001/REC-SVG-20010904/DTD/svg10.dtd">
<svg version="1.0" xmlns="http://www.w3.org/2000/svg"
 width="122.000000pt" height="80.000000pt" viewBox="0 0 122.000000 80.000000"
 preserveAspectRatio="xMidYMid meet">

<g transform="translate(0.000000,80.000000) scale(0.100000,-0.100000)"
fill="#3B80B7" stroke="none">
<path d="M508 760 c-144 -17 -268 -71 -354 -152 -65 -61 -94 -120 -94 -191 0
-168 181 -303 452 -337 144 -18 317 10 439 71 20 10 40 15 44 11 5 -4 6 -2 2
3 -3 6 3 17 15 24 16 10 19 10 12 -1 -4 -7 11 7 34 32 124 135 123 270 -2 388
-122 116 -342 177 -548 152z m290 -34 c137 -38 259 -123 302 -210 28 -60 26
-129 -6 -194 -106 -213 -533 -294 -810 -154 -78 39 -147 102 -173 155 -26 55
-27 137 -2 192 48 107 205 199 386 229 54 8 249 -3 303 -18z"/>
<path d="M441 694 c-131 -28 -256 -107 -297 -187 -24 -45 -22 -123 4 -173 97
-188 485 -260 749 -139 120 54 183 132 183 223 0 30 -7 69 -16 88 -38 80 -166
161 -300 189 -86 18 -238 18 -323 -1z m496 -230 c-54 -187 -52 -174 -17 -174
16 0 30 -4 30 -10 0 -6 -27 -10 -61 -10 -33 0 -58 4 -55 9 3 5 17 51 30 102
l25 94 -23 -28 c-13 -16 -43 -62 -67 -102 -24 -41 -47 -75 -50 -75 -7 0 -19
100 -20 164 l0 41 -19 -61 c-26 -79 -57 -125 -101 -147 -40 -19 -72 -14 -67
12 2 10 16 17 38 19 42 4 56 15 80 62 19 37 50 169 44 182 -6 10 -64 -9 -85
-28 -21 -19 -25 -54 -8 -71 14 -14 3 -33 -17 -33 -27 0 -36 49 -17 88 23 46
73 72 140 72 l53 0 0 -54 c0 -29 3 -74 6 -99 l7 -46 38 59 c41 63 135 167 144
158 3 -3 -10 -59 -28 -124z m-496 105 c21 -7 51 -25 66 -41 24 -25 28 -37 28
-88 0 -50 -4 -64 -31 -97 -47 -59 -84 -73 -191 -73 -90 0 -122 12 -68 26 26 6
31 19 60 132 9 35 13 72 10 82 -4 14 1 19 27 23 18 2 34 3 36 2 5 -4 -48 -207
-60 -228 -10 -19 -8 -20 36 -14 60 9 83 21 106 60 22 35 27 115 10 148 -26 48
-106 62 -177 29 -74 -33 -104 -111 -61 -157 17 -19 19 -26 9 -36 -10 -9 -17
-6 -37 16 -13 15 -24 40 -24 54 0 63 63 137 137 160 50 15 77 15 124 2z"/>
</g>
</svg>
